<svg width="32" height="32" viewBox="0 0 32 32" fill="none" xmlns="http://www.w3.org/2000/svg">
  <defs>
    <!-- Vibrant gradients for docs header -->
    <radialGradient id="docsCore" cx="50%" cy="30%" r="80%">
      <stop offset="0%" style="stop-color:#f0abfc" />
      <stop offset="40%" style="stop-color:#a855f7" />
      <stop offset="80%" style="stop-color:#3b82f6" />
      <stop offset="100%" style="stop-color:#1e40af" />
    </radialGradient>
    
    <linearGradient id="docsFlow1" x1="0%" y1="0%" x2="100%" y2="100%">
      <stop offset="0%" style="stop-color:#06b6d4" />
      <stop offset="100%" style="stop-color:#8b5cf6" />
    </linearGradient>
    
    <linearGradient id="docsFlow2" x1="100%" y1="0%" x2="0%" y2="100%">
      <stop offset="0%" style="stop-color:#f59e0b" />
      <stop offset="100%" style="stop-color:#ec4899" />
    </linearGradient>
    
    <linearGradient id="docsSpark" x1="0%" y1="0%" x2="100%" y2="100%">
      <stop offset="0%" style="stop-color:#fbbf24" />
      <stop offset="100%" style="stop-color:#f59e0b" />
    </linearGradient>
    
    <linearGradient id="textGrad" x1="0%" y1="0%" x2="100%" y2="100%">
      <stop offset="0%" style="stop-color:#1e293b" />
      <stop offset="100%" style="stop-color:#3b82f6" />
    </linearGradient>
  </defs>
  
  <!-- Logo icon (left side) -->
  <g transform="translate(2, 2)">
    <!-- Background circle -->
    <circle cx="14" cy="14" r="14" fill="url(#docsCore)" opacity="0.95"/>
    
    <!-- Flowing generation streams -->
    <path d="M4 10 Q8 4, 14 7 Q20 10, 24 6" stroke="url(#docsFlow1)" stroke-width="1.3" fill="none" opacity="0.8"/>
    <path d="M4 18 Q10 12, 18 16 Q24 20, 26 14" stroke="url(#docsFlow2)" stroke-width="1" fill="none" opacity="0.7"/>
    <path d="M2 14 Q10 22, 18 18 Q26 14, 28 22" stroke="url(#docsFlow1)" stroke-width="1.1" fill="none" opacity="0.6"/>
    
    <!-- Central generative core -->
    <circle cx="14" cy="14" r="2.5" fill="url(#docsSpark)" opacity="0.9"/>
    <circle cx="14" cy="14" r="1.8" fill="white" opacity="0.8"/>
    <circle cx="14" cy="14" r="0.6" fill="url(#docsSpark)"/>
    
    <!-- Generative particles -->
    <circle cx="20" cy="8" r="1" fill="url(#docsSpark)" opacity="0.9"/>
    <circle cx="23" cy="14" r="0.7" fill="white" opacity="0.8"/>
    <circle cx="20" cy="20" r="0.8" fill="url(#docsFlow1)" opacity="0.7"/>
    <circle cx="8" cy="20" r="0.7" fill="url(#docsFlow2)" opacity="0.8"/>
    <circle cx="5" cy="14" r="0.8" fill="white" opacity="0.6"/>
    <circle cx="8" cy="8" r="0.5" fill="url(#docsSpark)" opacity="0.9"/>
  </g>
</svg> 