<svg width="40" height="40" viewBox="0 0 40 40" fill="none" xmlns="http://www.w3.org/2000/svg">
  <defs>
    <!-- Vibrant gradients for generation flow -->
    <radialGradient id="coreGrad" cx="50%" cy="30%" r="70%">
      <stop offset="0%" style="stop-color:#f0abfc;stop-opacity:1" />
      <stop offset="30%" style="stop-color:#a855f7;stop-opacity:1" />
      <stop offset="70%" style="stop-color:#3b82f6;stop-opacity:1" />
      <stop offset="100%" style="stop-color:#1e40af;stop-opacity:1" />
    </radialGradient>
    
    <linearGradient id="flowGrad1" x1="0%" y1="0%" x2="100%" y2="100%">
      <stop offset="0%" style="stop-color:#06b6d4;stop-opacity:0.8" />
      <stop offset="50%" style="stop-color:#3b82f6;stop-opacity:0.9" />
      <stop offset="100%" style="stop-color:#8b5cf6;stop-opacity:0.7" />
    </linearGradient>
    
    <linearGradient id="flowGrad2" x1="100%" y1="0%" x2="0%" y2="100%">
      <stop offset="0%" style="stop-color:#f59e0b;stop-opacity:0.6" />
      <stop offset="50%" style="stop-color:#ef4444;stop-opacity:0.8" />
      <stop offset="100%" style="stop-color:#ec4899;stop-opacity:0.7" />
    </linearGradient>
    
    <linearGradient id="sparkGrad" x1="0%" y1="0%" x2="100%" y2="100%">
      <stop offset="0%" style="stop-color:#fbbf24;stop-opacity:1" />
      <stop offset="100%" style="stop-color:#f59e0b;stop-opacity:0.8" />
    </linearGradient>
  </defs>
  
  <!-- Background circle with core gradient -->
  <circle cx="20" cy="20" r="18" fill="url(#coreGrad)" opacity="0.95"/>
  
  <!-- Flowing generation streams (abstract representation of thought → AI → code) -->
  <path d="M8 15 Q12 8, 20 12 Q28 16, 32 10" stroke="url(#flowGrad1)" stroke-width="2" fill="none" opacity="0.8"/>
  <path d="M8 25 Q16 18, 24 22 Q32 26, 35 20" stroke="url(#flowGrad2)" stroke-width="1.5" fill="none" opacity="0.7"/>
  <path d="M5 20 Q15 28, 25 24 Q35 20, 38 28" stroke="url(#flowGrad1)" stroke-width="1.8" fill="none" opacity="0.6"/>
  
  <!-- Central generative core (pulsing energy) -->
  <circle cx="20" cy="20" r="4" fill="url(#sparkGrad)" opacity="0.9"/>
  <circle cx="20" cy="20" r="2.5" fill="white" opacity="0.8"/>
  <circle cx="20" cy="20" r="1" fill="url(#sparkGrad)"/>
  
  <!-- Generative particles/sparks emanating outward -->
  <circle cx="28" cy="12" r="1.5" fill="url(#sparkGrad)" opacity="0.9"/>
  <circle cx="32" cy="20" r="1" fill="white" opacity="0.8"/>
  <circle cx="28" cy="28" r="1.2" fill="url(#flowGrad1)" opacity="0.7"/>
  <circle cx="12" cy="28" r="1" fill="url(#flowGrad2)" opacity="0.8"/>
  <circle cx="8" cy="20" r="1.3" fill="white" opacity="0.6"/>
  <circle cx="12" cy="12" r="0.8" fill="url(#sparkGrad)" opacity="0.9"/>
  
  <!-- Abstract code/data bits (geometric) -->
  <rect x="24" y="8" width="2" height="2" fill="white" opacity="0.7" rx="0.3"/>
  <rect x="27" y="6" width="1.5" height="1.5" fill="url(#sparkGrad)" opacity="0.8" rx="0.2"/>
  <rect x="6" y="32" width="1.8" height="1.8" fill="url(#flowGrad2)" opacity="0.6" rx="0.3"/>
  <rect x="9" y="30" width="1.2" height="1.2" fill="white" opacity="0.5" rx="0.2"/>
</svg> 